<svg xmlns="http://www.w3.org/2000/svg" xmlns:xlink="http://www.w3.org/1999/xlink" width="1366" zoomAndPan="magnify" viewBox="0 0 1024.5 576" height="768" preserveAspectRatio="xMidYMid meet" version="1.0"><defs><clipPath id="4190893749"><path d="M 121.46875 89 L 902.816406 89 L 902.816406 540.179688 L 121.46875 540.179688 Z M 121.46875 89 " clip-rule="nonzero"/></clipPath><clipPath id="bb71979f82"><path d="M 121.46875 61.117188 L 902.816406 61.117188 L 902.816406 512.671875 L 121.46875 512.671875 Z M 121.46875 61.117188 " clip-rule="nonzero"/></clipPath><clipPath id="be11681016"><path d="M 121.46875 35.675781 L 902.816406 35.675781 L 902.816406 487 L 121.46875 487 Z M 121.46875 35.675781 " clip-rule="nonzero"/></clipPath></defs><g clip-path="url(#4190893749)"><path fill="#bcbec0" d="M 566.578125 89.292969 L 121.46875 346.152344 L 457.679688 540.191406 L 902.816406 283.316406 L 566.578125 89.292969 " fill-opacity="1" fill-rule="nonzero"/></g><g clip-path="url(#bb71979f82)"><path fill="#d1d3d4" d="M 566.578125 61.730469 L 121.46875 318.570312 L 457.679688 512.578125 L 902.816406 255.742188 L 566.578125 61.730469 " fill-opacity="1" fill-rule="nonzero"/></g><g clip-path="url(#be11681016)"><path fill="#f1f2f2" d="M 566.578125 35.667969 L 121.46875 292.515625 L 457.679688 486.542969 L 902.816406 229.6875 L 566.578125 35.667969 " fill-opacity="1" fill-rule="nonzero"/></g><path fill="#d1d3d4" d="M 617.183594 99.457031 L 599.09375 109.871094 L 796.882812 223.976562 L 814.9375 213.566406 L 617.183594 99.457031 " fill-opacity="1" fill-rule="nonzero"/><path fill="#7171af" d="M 557.828125 176.332031 L 554.605469 184.253906 L 564.042969 186.542969 C 565.640625 185.769531 567.167969 184.953125 568.65625 184.105469 C 590.882812 171.285156 592.46875 150.980469 573.464844 137.082031 L 572.894531 143.808594 L 561.792969 144.554688 C 573.296875 154.234375 571.960938 167.503906 557.828125 176.332031 " fill-opacity="1" fill-rule="nonzero"/><path fill="#42e8e0" d="M 493.785156 177.128906 C 484.582031 171.804688 480.324219 164.683594 480.9375 157.71875 L 475.269531 152.777344 L 464.023438 155.652344 C 462.351562 165.84375 468.261719 176.332031 481.722656 184.105469 C 500.015625 194.65625 527.085938 197.148438 549.503906 191.59375 L 538.65625 188.972656 L 541.117188 182.910156 C 525.257812 186.414062 506.578125 184.507812 493.785156 177.128906 " fill-opacity="1" fill-rule="nonzero"/><path fill="#f9c582" d="M 480.304688 142.863281 L 485.585938 147.476562 C 487.648438 145.097656 490.347656 142.894531 493.785156 140.902344 C 508.765625 132.253906 531.898438 131.09375 549.074219 137.429688 L 559.800781 136.738281 L 560.382812 129.980469 C 536.425781 120.316406 503.085938 121.605469 481.722656 133.933594 C 475.570312 137.484375 471 141.597656 468.042969 145.988281 L 480.304688 142.863281 " fill-opacity="1" fill-rule="nonzero"/><path fill="#7171af" d="M 394.265625 346.195312 L 533.082031 426.285156 L 536.636719 424.222656 L 397.839844 344.121094 L 394.265625 346.195312 " fill-opacity="1" fill-rule="nonzero"/><path fill="#7171af" d="M 391.203125 347.960938 L 387.625 350.023438 L 477.179688 401.695312 L 480.707031 399.628906 L 391.203125 347.960938 " fill-opacity="1" fill-rule="nonzero"/><path fill="#7171af" d="M 380.027344 354.429688 L 505.011719 426.535156 L 508.585938 424.460938 L 383.582031 352.375 L 380.027344 354.429688 " fill-opacity="1" fill-rule="nonzero"/><path fill="#7171af" d="M 358.148438 367.007812 L 496.953125 447.136719 L 500.546875 445.042969 L 361.742188 364.964844 L 358.148438 367.007812 " fill-opacity="1" fill-rule="nonzero"/><path fill="#7171af" d="M 414.085938 391.589844 L 503.613281 443.296875 L 507.1875 441.230469 L 417.675781 389.566406 L 414.085938 391.589844 " fill-opacity="1" fill-rule="nonzero"/><path fill="#7171af" d="M 386.242188 366.753906 L 511.253906 438.898438 L 514.800781 436.84375 L 389.796875 364.714844 L 386.242188 366.753906 " fill-opacity="1" fill-rule="nonzero"/><path fill="#7171af" d="M 643.214844 180.972656 L 782.011719 261.082031 L 785.585938 259.007812 L 646.78125 178.929688 L 643.214844 180.972656 " fill-opacity="1" fill-rule="nonzero"/><path fill="#7171af" d="M 640.125 182.761719 L 636.570312 184.835938 L 726.101562 236.5 L 729.695312 234.4375 L 640.125 182.761719 " fill-opacity="1" fill-rule="nonzero"/><path fill="#7171af" d="M 628.953125 189.222656 L 753.957031 261.347656 L 757.511719 259.253906 L 632.527344 187.148438 L 628.953125 189.222656 " fill-opacity="1" fill-rule="nonzero"/><path fill="#7171af" d="M 607.132812 201.84375 L 745.894531 281.925781 L 749.488281 279.871094 L 610.6875 199.769531 L 607.132812 201.84375 " fill-opacity="1" fill-rule="nonzero"/><path fill="#7171af" d="M 663.007812 226.398438 L 752.558594 278.085938 L 756.128906 275.992188 L 666.582031 224.324219 L 663.007812 226.398438 " fill-opacity="1" fill-rule="nonzero"/><path fill="#7171af" d="M 635.191406 201.554688 L 760.152344 273.683594 L 763.75 271.632812 L 638.765625 199.53125 L 635.191406 201.554688 " fill-opacity="1" fill-rule="nonzero"/><path fill="#7171af" d="M 600.179688 205.84375 L 738.984375 285.894531 L 742.570312 283.832031 L 603.761719 203.75 L 600.179688 205.84375 " fill-opacity="1" fill-rule="nonzero"/><path fill="#7171af" d="M 686.648438 259.253906 L 597.097656 207.585938 L 593.542969 209.648438 L 683.074219 261.316406 L 686.648438 259.253906 " fill-opacity="1" fill-rule="nonzero"/><path fill="#7171af" d="M 710.933594 286.160156 L 714.507812 284.066406 L 589.496094 211.984375 L 585.90625 214.015625 L 710.933594 286.160156 " fill-opacity="1" fill-rule="nonzero"/><path fill="#7171af" d="M 564.085938 226.636719 L 702.886719 306.746094 L 706.441406 304.6875 L 567.660156 224.59375 L 564.085938 226.636719 " fill-opacity="1" fill-rule="nonzero"/><path fill="#7171af" d="M 620.023438 251.238281 L 709.546875 302.898438 L 713.082031 300.835938 L 623.550781 249.144531 L 620.023438 251.238281 " fill-opacity="1" fill-rule="nonzero"/><path fill="#7171af" d="M 592.144531 226.398438 L 717.148438 298.496094 L 720.722656 296.453125 L 595.738281 224.324219 L 592.144531 226.398438 " fill-opacity="1" fill-rule="nonzero"/><path fill="#7171af" d="M 392.484375 190.351562 L 663.765625 346.859375 L 670.621094 342.910156 L 399.367188 186.414062 L 392.484375 190.351562 " fill-opacity="1" fill-rule="nonzero"/><path fill="#7171af" d="M 561.5625 294.746094 L 386.574219 193.769531 L 379.710938 197.742188 L 554.683594 298.683594 L 561.5625 294.746094 " fill-opacity="1" fill-rule="nonzero"/><path fill="#7171af" d="M 616.207031 343.191406 L 371.9375 202.207031 L 365.089844 206.191406 L 609.328125 347.109375 L 616.207031 343.191406 " fill-opacity="1" fill-rule="nonzero"/><path fill="#7171af" d="M 349.292969 215.277344 L 620.53125 371.804688 L 627.398438 367.847656 L 356.136719 211.339844 L 349.292969 215.277344 " fill-opacity="1" fill-rule="nonzero"/><path fill="#7171af" d="M 511.46875 323.636719 L 518.335938 319.667969 L 343.363281 218.699219 L 336.480469 222.640625 L 511.46875 323.636719 " fill-opacity="1" fill-rule="nonzero"/><path fill="#7171af" d="M 321.863281 231.125 L 566.113281 372.0625 L 572.980469 368.09375 L 328.703125 227.164062 L 321.863281 231.125 " fill-opacity="1" fill-rule="nonzero"/><path fill="#7171af" d="M 452.234375 125 C 456.039062 127.222656 462.195312 127.222656 465.96875 125 C 469.753906 122.882812 469.753906 119.304688 465.96875 117.113281 C 462.195312 114.945312 456.039062 114.945312 452.234375 117.113281 C 448.445312 119.304688 448.445312 122.882812 452.234375 125 " fill-opacity="1" fill-rule="nonzero"/><path fill="#7171af" d="M 327.039062 197.296875 C 330.816406 199.46875 336.945312 199.46875 340.746094 197.296875 C 344.539062 195.101562 344.539062 191.53125 340.746094 189.359375 C 336.945312 187.164062 330.816406 187.164062 327.039062 189.359375 C 323.242188 191.53125 323.242188 195.101562 327.039062 197.296875 " fill-opacity="1" fill-rule="nonzero"/><path fill="#7171af" d="M 223.222656 257.199219 C 227 259.375 233.144531 259.375 236.949219 257.199219 C 240.738281 254.988281 240.738281 251.441406 236.949219 249.273438 C 233.144531 247.074219 227 247.074219 223.222656 249.273438 C 219.441406 251.441406 219.417969 254.988281 223.222656 257.199219 " fill-opacity="1" fill-rule="nonzero"/><path fill="#e28b7a" d="M 343.023438 309.699219 C 342.960938 308.875 342.40625 308.0625 341.460938 307.515625 C 339.789062 306.53125 336.945312 306.578125 335.285156 307.515625 C 335.15625 307.578125 335.035156 307.675781 334.917969 307.773438 L 315.609375 305.367188 C 315.320312 304.9375 314.941406 304.570312 314.425781 304.277344 C 312.96875 303.476562 310.695312 303.328125 309.023438 303.960938 L 297.152344 300.023438 C 297.042969 299.191406 296.496094 298.441406 295.605469 297.949219 C 293.949219 296.9375 291.078125 296.917969 289.441406 297.867188 C 289.1875 298.011719 288.996094 298.179688 288.820312 298.339844 L 268.070312 296.265625 C 267.785156 295.820312 267.398438 295.410156 266.871094 295.109375 C 265.679688 294.460938 263.933594 294.222656 262.433594 294.496094 L 253.09375 289.113281 C 253.167969 288.820312 253.167969 288.515625 253.09375 288.230469 C 252.980469 287.683594 252.652344 286.9375 251.582031 286.304688 C 249.894531 285.328125 247.054688 285.328125 245.386719 286.304688 C 245.089844 286.460938 244.839844 286.6875 244.605469 286.9375 L 235.238281 286.9375 L 317.554688 239.429688 L 313.683594 237.195312 L 224.476562 288.675781 L 331.425781 350.386719 L 331.949219 350.679688 L 335.8125 348.460938 L 235.238281 290.445312 L 244.605469 290.445312 C 244.839844 290.671875 245.089844 290.84375 245.386719 291.054688 C 246.570312 291.71875 248.316406 291.949219 249.8125 291.65625 L 259.160156 297.054688 C 259.117188 297.367188 259.117188 297.644531 259.160156 297.949219 C 259.296875 298.683594 259.875 299.390625 260.707031 299.867188 C 262.382812 300.820312 265.1875 300.835938 266.871094 299.867188 C 266.984375 299.792969 267.0625 299.738281 267.121094 299.695312 L 288.417969 301.8125 C 288.664062 302.136719 289.011719 302.414062 289.386719 302.644531 C 290.816406 303.476562 293.039062 303.640625 294.691406 303.023438 L 306.691406 307.015625 C 306.8125 307.8125 307.359375 308.546875 308.253906 309.035156 C 309.9375 309.984375 312.738281 309.984375 314.40625 309.035156 C 314.574219 308.957031 314.699219 308.875 314.816406 308.769531 L 334.125 311.183594 C 334.371094 311.613281 334.78125 311.972656 335.265625 312.257812 C 336.648438 313.074219 338.820312 313.234375 340.4375 312.707031 L 376.585938 326.179688 L 379.710938 323.402344 L 343.023438 309.699219 " fill-opacity="1" fill-rule="nonzero"/></svg>